<svg width="96" height="96" xmlns="http://www.w3.org/2000/svg" xmlns:xlink="http://www.w3.org/1999/xlink" xml:space="preserve" overflow="hidden"><g transform="translate(-137 -554)"><path d="M148.622 609.333 157.178 612.9C158.378 613.4 159.356 612.258 159.36 610.347L159.371 604.157C159.371 602.247 158.403 600.292 157.201 599.792L148.645 596.23C147.445 595.73 146.466 596.872 146.463 598.783L146.452 604.973C146.449 606.878 147.42 608.833 148.622 609.333Z"/><path d="M173.794 619.814 182.35 623.376C182.525 623.452 182.713 623.492 182.903 623.494 183.838 623.494 184.529 622.43 184.532 620.823L184.543 614.633C184.543 612.723 183.575 610.768 182.373 610.268L173.818 606.706C173.643 606.63 173.455 606.59 173.265 606.588 172.33 606.588 171.638 607.652 171.635 609.259L171.624 615.449C171.621 617.359 172.592 619.314 173.794 619.814ZM175.631 611.794 180.357 613.761C180.475 614.034 180.539 614.328 180.543 614.626L180.537 618.289 175.811 616.321C175.692 616.048 175.628 615.754 175.624 615.456Z"/><path d="M140.26 585.171C140.146 585.215 140.036 585.27 139.932 585.335 139.375 585.706 139.04 586.331 139.04 587L139 609.481C138.998 610.29 139.484 611.02 140.231 611.331L142.262 612.176 143.556 614.776C143.771 615.208 144.134 615.547 144.579 615.732L157.365 621.056C159.87 622.101 162.372 621.116 163.741 618.556L165.127 615.962C165.225 616.136 165.308 616.318 165.376 616.506L167.107 621.221C168.18 624.142 169.981 626.311 172.048 627.172L184.835 632.5C185.636 632.833 186.56 632.612 187.124 631.953L188.084 630.83 189.768 630.992 190 631 190.236 630.977C190.413 630.959 190.587 630.917 190.753 630.853L203.753 625.567C204.36 625.321 204.809 624.793 204.953 624.154L207.975 610.736 218.929 606.2C219.038 606.152 219.163 606.165 219.26 606.233 219.361 606.296 219.42 606.407 219.417 606.526L219.417 607.238C219.417 607.391 219.318 607.527 219.172 607.573 217.38 608.156 216.168 609.828 216.172 611.713L216.172 612.789C216.176 615.193 218.127 617.138 220.531 617.134 221.068 617.134 221.6 617.033 222.1 616.839L223.07 616.461C227.866 614.613 231.021 609.994 231 604.855L231 602.578C230.999 597.614 226.975 593.591 222.011 593.591 220.873 593.591 219.746 593.807 218.689 594.228L190.525 605.438 158.325 592.031 158.925 589.754 169.925 585.196C170.105 585.121 170.312 585.207 170.386 585.387 170.404 585.43 170.413 585.476 170.413 585.522L170.413 586.234C170.413 586.387 170.314 586.523 170.168 586.569 168.376 587.152 167.164 588.824 167.168 590.709L167.168 591.785C167.167 594.187 169.114 596.136 171.516 596.137 172.058 596.137 172.595 596.036 173.1 595.839L174.07 595.461C178.866 593.613 182.021 588.994 182 583.855L182 581.578C182 576.614 177.975 572.59 173.011 572.591 171.87 572.591 170.738 572.808 169.678 573.232ZM171.168 576.945C173.727 575.926 176.627 577.174 177.646 579.733 177.88 580.32 178 580.946 178 581.578L178 583.855C178.014 587.344 175.873 590.479 172.618 591.735L171.647 592.113C171.467 592.184 171.263 592.096 171.192 591.916 171.175 591.874 171.167 591.83 171.167 591.785L171.167 590.709C171.167 590.556 171.265 590.421 171.41 590.374 173.205 589.793 174.42 588.12 174.417 586.234L174.417 585.522C174.418 583.119 172.47 581.169 170.066 581.169 169.494 581.169 168.928 581.281 168.4 581.5L156.484 586.438C155.908 586.677 155.477 587.171 155.317 587.773L154.6 590.48 146.286 587.018ZM187.964 626.8 187.432 626.749C186.783 626.686 186.143 626.944 185.719 627.44L185.029 628.249 173.585 623.482C172.83 623.167 171.663 622.026 170.862 619.845L169.131 615.13C168.353 613.01 166.831 611.621 165.166 611.505 165.089 611.5 165.014 611.497 164.938 611.497 163.664 611.52 162.511 612.259 161.958 613.407L160.213 616.674C159.671 617.688 159.19 617.488 158.903 617.374L146.803 612.337 145.511 609.727C145.297 609.295 144.934 608.956 144.489 608.771L143 608.152 143.035 590 188 608.718ZM227 604.855C227.014 608.344 224.873 611.479 221.618 612.735L220.647 613.113C220.467 613.184 220.263 613.096 220.192 612.916 220.175 612.874 220.167 612.83 220.167 612.785L220.167 611.709C220.167 611.556 220.265 611.421 220.41 611.374 222.205 610.793 223.42 609.12 223.417 607.234L223.417 606.522C223.418 604.119 221.47 602.169 219.066 602.169 218.494 602.169 217.928 602.281 217.4 602.5L205.484 607.438C204.884 607.687 204.443 608.212 204.3 608.846L201.278 622.255 192 626.028 192 609.156 220.168 597.945C222.727 596.926 225.627 598.174 226.646 600.733 226.88 601.32 227 601.946 227 602.578Z"/></g></svg>